#!OML:ASF F:\VICON\USERDATA\INSTALL\rory3\rory3.ASF
:FULLY-SPECIFIED
:DEGREES
1
root 0.410685 18.0493 -29.3259 -3.45478 -0.996384 -0.763776
lowerback 12.6013 1.00607 -0.438384
upperback 0.702862 1.32576 0.798075
thorax -6.36137 0.672717 0.851459
lowerneck -16.8143 -3.48249 -1.88581
upperneck 21.4695 -4.57105 0.923346
head 9.6373 -2.17138 0.0322004
rclavicle 1.40267e-014 -3.67752e-015
rhumerus -25.9904 -20.0858 -79.5672
rradius 25.4676
rwrist 5.99779
rhand -18.4138 23.1519
rfingers 7.12502
rthumb 7.87101 -6.68158
lclavicle 1.40267e-014 -3.67752e-015
lhumerus -32.4499 9.24841 80.3469
lradius 21.3282
lwrist 5.31976
lhand -25.3092 20.9274
lfingers 7.12502
lthumb 1.21295 50.9037
rfemur -13.5872 -1.37307 22.7914
rtibia 71.8785
rfoot 4.37046 -6.67869
rtoes 2.50448
lfemur -12.4787 0.00324492 -23.032
ltibia 22.9992
lfoot -4.77972 -3.87682
ltoes -28.3593
2
root 0.423572 18.0457 -29.1688 -3.40887 -0.834095 -0.709371
lowerback 12.5703 0.669866 -0.904159
upperback 0.0134883 0.841638 1.15452
thorax -7.08051 0.463246 1.57682
lowerneck -14.078 -3.06773 -2.51983
upperneck 20.9107 -3.89408 0.964208
head 8.94137 -1.9243 0.287789
rclavicle 1.87603e-015 5.56597e-015
rhumerus -27.7019 -19.2149 -78.7601
rradius 25.224
rwrist 6.0153
rhand -17.7716 23.6237
rfingers 7.12502
rthumb 8.49073 -6.18564
lclavicle 1.87603e-015 5.56597e-015
lhumerus -33.8875 10.0488 80.058
lradius 21.5397
lwrist 5.10878
lhand -25.4408 20.4691
lfingers 7.12502
lthumb 1.08588 50.4461
rfemur -14.9935 -1.67016 22.7336
rtibia 72.8391
rfoot 3.12932 -7.26812
rtoes 1.53745
lfemur -12.174 -0.133135 -23.1688
ltibia 23.4534
lfoot -5.31523 -3.42505
ltoes -28.8581
3
root 0.43355 18.0513 -29.0104 -3.52822 -0.655548 -0.707518
lowerback 12.9103 0.674077 -0.756194
upperback 0.252166 0.854662 0.995295
thorax -7.01284 0.459696 1.32029
lowerneck -15.584 -3.15148 -2.19149
upperneck 21.4574 -4.06283 0.958467
head 9.40478 -1.96579 0.182465
rclavicle 2.68359e-015 4.77083e-015
rhumerus -27.6184 -20.74 -78.5795
rradius 24.9594
rwrist 6.19422
rhand -16.6393 24.0132
rfingers 7.12502
rthumb 9.58334 -5.74885
lclavicle 2.68359e-015 4.77083e-015
lhumerus -32.6954 9.22416 80.1478
lradius 21.4101
lwrist 5.35397
lhand -25.5609 19.4047
lfingers 7.12502
lthumb 0.969882 49.3822
rfemur -16.0409 -1.92339 22.7616
rtibia 73.4403
rfoot 2.06441 -7.90086
rtoes 1.28871
lfemur -11.4645 -0.285586 -23.2443
ltibia 23.5481
lfoot -5.86416 -3.06185
ltoes -28.3317
4
root 0.443426 18.0621 -28.8562 -3.72216 -0.540456 -0.622105
lowerback 13.2559 0.764539 -0.683027
upperback 0.431908 0.969155 0.797364
thorax -7.01373 0.508531 1.04537
lowerneck -16.4147 -3.27909 -1.78668
upperneck 21.7485 -4.3165 0.875673
head 9.65378 -2.05236 0.0376672
rclavicle -6.41702e-015 -2.98177e-015
rhumerus -27.8042 -22.09 -78.4565
rradius 24.8012
rwrist 6.26986
rhand -15.8994 21.0832
rfingers 7.12502
rthumb 10.2972 -8.6447
lclavicle -6.41702e-015 -2.98177e-015
lhumerus -31.6961 8.27551 80.1892
lradius 21.3459
lwrist 5.55747
lhand -25.2907 17.8224
lfingers 7.12502
lthumb 1.23079 47.7986
rfemur -17.0215 -2.09553 22.668
rtibia 73.9298
rfoot 1.03033 -8.26205
rtoes 0.886186
lfemur -10.7717 -0.269895 -23.4082
ltibia 23.7124
lfoot -6.40529 -2.7892
ltoes -27.5232
5
root 0.452971 18.0666 -28.7009 -3.82016 -0.558181 -0.646191
lowerback 13.1074 0.830312 -0.596802
upperback 0.625672 1.06276 0.709838
thorax -6.72273 0.548348 0.888819
lowerneck -16.5115 -3.35192 -1.62222
upperneck 21.8333 -4.48465 0.963259
head 9.70222 -2.10511 0.0161457
rclavicle 6.4605e-016 -6.95746e-016
rhumerus -28.0931 -22.8052 -78.3934
rradius 24.6687
rwrist 6.18005
rhand -14.8782 14.7341
rfingers 7.12502
rthumb 11.2822 -14.9425
lclavicle 6.4605e-016 -6.95746e-016
lhumerus -30.8622 7.96193 80.099
lradius 21.325
lwrist 5.28969
lhand -24.9954 17.9966
lfingers 7.12502
lthumb 1.51604 47.9709
rfemur -18.1431 -2.18073 22.7142
rtibia 74.2484
rfoot -0.0387606 -8.65929
rtoes -1.24592
lfemur -10.2159 -0.21025 -23.4503
ltibia 23.7873
lfoot -6.73646 -2.5556
ltoes -27.295
6
root 0.460846 18.064 -28.542 -3.88102 -0.475669 -0.70967
lowerback 12.8554 0.656644 -0.742857
upperback 0.366166 0.82588 0.894391
thorax -6.8577 0.442207 1.21197
lowerneck -14.7174 -3.21027 -1.90308
upperneck 21.4374 -4.23343 0.946881
head 9.23235 -2.0293 0.124084
rclavicle 1.26166e-014 -1.0138e-014
rhumerus -29.2561 -22.4537 -77.9048
rradius 24.5465
rwrist 6.14432
rhand -14.8025 14.9058
rfingers 7.12502
rthumb 11.3553 -14.7667
lclavicle 1.26166e-014 -1.0138e-014
lhumerus -31.308 8.11659 80.0112
lradius 21.56
lwrist 5.32144
lhand -25.26 19.8585
lfingers 7.12502
lthumb 1.26044 49.8345
rfemur -19.2513 -2.31927 22.8543
rtibia 74.4001
rfoot -0.942997 -8.86545
rtoes -3.19233
lfemur -9.57445 -0.296913 -23.4397
ltibia 23.7799
lfoot -7.14746 -2.2298
ltoes -27.3522
7
root 0.468046 18.0629 -28.3787 -3.92551 -0.14796 -0.653285
lowerback 12.8587 0.659359 -0.758389
upperback 0.979035 0.819957 0.829493
thorax -6.20717 0.432951 1.15499
lowerneck -17.3256 -3.37723 -1.71869
upperneck 22.2088 -4.48162 0.937976
head 9.98997 -2.10573 0.00557089
rclavicle -7.34882e-015 -5.96354e-015
rhumerus -28.2144 -23.7312 -78.0857
rradius 24.1668
rwrist 6.72647
rhand -16.2204 21.1766
rfingers 7.12502
rthumb 9.98754 -8.56644
lclavicle -7.34882e-015 -5.96354e-015
lhumerus -29.3766 7.43629 80.4271
lradius 21.6525
lwrist 5.57225
lhand -25.4188 21.615
lfingers 7.12502
lthumb 1.1071 51.5919
rfemur -20.2808 -2.64455 22.8342
rtibia 74.3854
rfoot -1.55994 -8.4934
rtoes 0.174477
lfemur -8.91861 -0.471984 -23.5658
ltibia 23.8283
lfoot -7.67816 -1.94989
ltoes -27.342
8
root 0.476769 18.0656 -28.2163 -3.93358 0.0221302 -0.516657
lowerback 12.9469 0.680616 -0.91461
upperback 1.21113 0.821629 0.785896
thorax -6.01199 0.435195 1.19718
lowerneck -18.6592 -3.45565 -1.6068
upperneck 22.7914 -4.60661 0.9039
head 10.4494 -2.14247 -0.0723324
rclavicle 5.67779e-015 1.81888e-014
rhumerus -28.0114 -24.3726 -78.0909
rradius 23.9544
rwrist 6.67236
rhand -16.3967 21.1961
rfingers 7.12502
rthumb 9.81744 -8.55504
lclavicle 5.67779e-015 1.81888e-014
lhumerus -28.3614 6.7841 80.6679
lradius 21.9634
lwrist 5.72718
lhand -25.3196 23.4466
lfingers 7.12502
lthumb 1.20292 53.4229
rfemur -21.3052 -2.82663 22.7157
rtibia 74.2583
rfoot -2.09319 -7.94059
rtoes 2.64913
lfemur -8.37997 -0.448892 -23.7855
ltibia 23.9686
lfoot -8.21372 -1.73998
ltoes -26.9514
9
root 0.488341 18.059 -28.0604 -3.87604 0.55507 -0.476702
lowerback 12.9506 0.31432 -1.12082
upperback 0.383956 0.320422 0.971093
thorax -6.88067 0.209341 1.60097
lowerneck -15.377 -3.18747 -1.93202
upperneck 21.9851 -4.1633 0.827419
head 9.54344 -2.00524 0.0807962
rclavicle -9.25591e-016 1.17283e-014
rhumerus -30.2971 -23.064 -77.37
rradius 24.1985
rwrist 5.75237
rhand -14.6462 11.707
rfingers 7.12502
rthumb 11.506 -17.9572
lclavicle -9.25591e-016 1.17283e-014
lhumerus -30.0453 6.69967 80.5345
lradius 22.5765
lwrist 6.048
lhand -25.0572 23.2008
lfingers 7.12502
lthumb 1.45634 53.1755
rfemur -22.3665 -3.29672 22.6811
rtibia 73.9915
rfoot -3.03872 -7.62296
rtoes 1.7794
lfemur -7.98223 -0.680861 -23.9126
ltibia 24.1229
lfoot -8.79361 -1.69622
ltoes -26.2366
10
root 0.502077 18.0405 -27.9049 -3.71795 1.14653 -0.182594
lowerback 12.7925 0.06533 -1.40217
upperback 0.459951 -0.0485994 0.994204
thorax -6.69715 0.0364519 1.85203
lowerneck -15.8734 -3.08796 -2.14334
upperneck 22.1081 -3.97689 0.895382
head 9.68347 -1.92473 0.154203
rclavicle -7.85199e-015 2.98177e-015
rhumerus -30.3975 -23.119 -77.1703
rradius 24.2939
rwrist 6.40539
rhand -16.2306 30.5784
rfingers 7.12502
rthumb 9.97767 0.834898
lclavicle -7.85199e-015 2.98177e-015
lhumerus -29.3268 6.89594 80.5977
lradius 22.4991
lwrist 6.24267
lhand -25.2042 21.8151
lfingers 7.12502
lthumb 1.31438 51.7908
rfemur -23.538 -3.82531 22.3283
rtibia 73.6236
rfoot -4.10186 -7.36928
rtoes 1.98465
lfemur -7.69351 -0.969208 -24.3359
ltibia 24.2885
lfoot -9.42235 -1.65891
ltoes -24.8675
11
root 0.506979 18.031 -27.7535 -3.75858 1.32911 -0.122556
lowerback 12.938 -0.0739979 -1.66095
upperback 0.454649 -0.262624 1.14749
thorax -6.7737 -0.0564409 2.20172
lowerneck -15.9171 -3.00012 -2.39297
upperneck 22.222 -3.7888 0.896465
head 9.73459 -1.858 0.219103
rclavicle -9.56651e-016 -8.15017e-015
rhumerus -30.6354 -22.8965 -77.0084
rradius 24.7314
rwrist 7.93085
rhand -16.5937 26.6519
rfingers 7.12502
rthumb 9.62738 -3.10814
lclavicle -9.56651e-016 -8.15017e-015
lhumerus -28.9504 6.7529 80.7669
lradius 22.6893
lwrist 6.79579
lhand -25.478 21.5781
lfingers 7.12502
lthumb 1.04994 51.5553
rfemur -24.4689 -3.88352 22.3329
rtibia 73.0171
rfoot -5.14439 -7.26361
rtoes 1.68407
lfemur -7.20208 -1.00159 -24.4422
ltibia 24.4839
lfoot -9.94717 -1.46633
ltoes -24.3108
